<mxfile host="app.diagrams.net" modified="2020-05-04T15:42:16.181Z" agent="5.0 (Windows NT 10.0; Win64; x64) AppleWebKit/537.36 (KHTML, like Gecko) Chrome/81.0.4044.129 Safari/537.36" etag="01EdnA90n2tnTscoOyI_" version="13.0.3" type="github" pages="2">
  <diagram id="C5RBs43oDa-KdzZeNtuy" name="Version 1">
    <mxGraphModel dx="1422" dy="794" grid="1" gridSize="10" guides="1" tooltips="1" connect="1" arrows="1" fold="1" page="1" pageScale="1" pageWidth="827" pageHeight="1169" math="0" shadow="0">
      <root>
        <mxCell id="WIyWlLk6GJQsqaUBKTNV-0" />
        <mxCell id="WIyWlLk6GJQsqaUBKTNV-1" parent="WIyWlLk6GJQsqaUBKTNV-0" />
        <mxCell id="vfSfb78cWZUa1gDCjAym-44" value="&lt;span style=&quot;font-size: 11px ; font-weight: 700&quot;&gt;Mapillary&lt;/span&gt;" style="rounded=1;whiteSpace=wrap;html=1;strokeColor=#919191;strokeWidth=2;fillColor=#FFFFFF00;verticalAlign=bottom;" parent="WIyWlLk6GJQsqaUBKTNV-1" vertex="1">
          <mxGeometry x="510" y="665" width="310" height="390" as="geometry" />
        </mxCell>
        <mxCell id="vfSfb78cWZUa1gDCjAym-45" value="&lt;span style=&quot;font-size: 11px&quot;&gt;&lt;b&gt;Information box&lt;br&gt;&lt;/b&gt;&lt;/span&gt;" style="rounded=1;whiteSpace=wrap;html=1;strokeColor=#919191;strokeWidth=2;fillColor=#FFFFFF00;verticalAlign=bottom;" parent="WIyWlLk6GJQsqaUBKTNV-1" vertex="1">
          <mxGeometry x="880" y="665" width="310" height="390" as="geometry" />
        </mxCell>
        <mxCell id="vfSfb78cWZUa1gDCjAym-43" value="&lt;span style=&quot;font-size: 11px ; font-weight: 700&quot;&gt;Timeseries&lt;/span&gt;" style="rounded=1;whiteSpace=wrap;html=1;strokeColor=#919191;strokeWidth=2;fillColor=#FFFFFF00;verticalAlign=bottom;" parent="WIyWlLk6GJQsqaUBKTNV-1" vertex="1">
          <mxGeometry x="60" y="665" width="310" height="390" as="geometry" />
        </mxCell>
        <mxCell id="WIyWlLk6GJQsqaUBKTNV-8" value="No" style="rounded=0;html=1;jettySize=auto;orthogonalLoop=1;fontSize=11;endArrow=block;endFill=0;endSize=8;strokeWidth=1;shadow=0;labelBackgroundColor=none;edgeStyle=orthogonalEdgeStyle;" parent="WIyWlLk6GJQsqaUBKTNV-1" source="WIyWlLk6GJQsqaUBKTNV-10" target="WIyWlLk6GJQsqaUBKTNV-11" edge="1">
          <mxGeometry x="0.3333" y="20" relative="1" as="geometry">
            <mxPoint as="offset" />
          </mxGeometry>
        </mxCell>
        <mxCell id="WIyWlLk6GJQsqaUBKTNV-9" value="Yes" style="edgeStyle=orthogonalEdgeStyle;rounded=0;html=1;jettySize=auto;orthogonalLoop=1;fontSize=11;endArrow=block;endFill=0;endSize=8;strokeWidth=1;shadow=0;labelBackgroundColor=none;" parent="WIyWlLk6GJQsqaUBKTNV-1" source="WIyWlLk6GJQsqaUBKTNV-10" target="WIyWlLk6GJQsqaUBKTNV-12" edge="1">
          <mxGeometry y="10" relative="1" as="geometry">
            <mxPoint as="offset" />
          </mxGeometry>
        </mxCell>
        <mxCell id="WIyWlLk6GJQsqaUBKTNV-10" value="Is measure ?" style="rhombus;whiteSpace=wrap;html=1;shadow=0;fontFamily=Helvetica;fontSize=12;align=center;strokeWidth=1;spacing=6;spacingTop=-4;" parent="WIyWlLk6GJQsqaUBKTNV-1" vertex="1">
          <mxGeometry x="102.81999999999998" y="850" width="100" height="80" as="geometry" />
        </mxCell>
        <mxCell id="WIyWlLk6GJQsqaUBKTNV-11" value="Update measure marker" style="rounded=1;whiteSpace=wrap;html=1;fontSize=12;glass=0;strokeWidth=1;shadow=0;fillColor=#66B2FF;" parent="WIyWlLk6GJQsqaUBKTNV-1" vertex="1">
          <mxGeometry x="99.99999999999999" y="970" width="105.63" height="40" as="geometry" />
        </mxCell>
        <mxCell id="WIyWlLk6GJQsqaUBKTNV-12" value="Update weather marker" style="rounded=1;whiteSpace=wrap;html=1;fontSize=12;glass=0;strokeWidth=1;shadow=0;fillColor=#66B2FF;" parent="WIyWlLk6GJQsqaUBKTNV-1" vertex="1">
          <mxGeometry x="250" y="870" width="100" height="40" as="geometry" />
        </mxCell>
        <mxCell id="pCW0Gb2x2I5zyQrK6hDG-2" style="edgeStyle=orthogonalEdgeStyle;rounded=0;orthogonalLoop=1;jettySize=auto;html=1;exitX=0.5;exitY=1;exitDx=0;exitDy=0;entryX=0.5;entryY=0;entryDx=0;entryDy=0;endArrow=block;endFill=0;endSize=8;" parent="WIyWlLk6GJQsqaUBKTNV-1" source="ssbct8zx-_CwylW5RjRk-0" target="WIyWlLk6GJQsqaUBKTNV-10" edge="1">
          <mxGeometry relative="1" as="geometry" />
        </mxCell>
        <mxCell id="ssbct8zx-_CwylW5RjRk-0" value="Perform probing" style="rounded=1;whiteSpace=wrap;html=1;fontSize=12;glass=0;strokeWidth=1;shadow=0;" parent="WIyWlLk6GJQsqaUBKTNV-1" vertex="1">
          <mxGeometry x="105.31999999999998" y="740" width="95" height="40" as="geometry" />
        </mxCell>
        <mxCell id="ssbct8zx-_CwylW5RjRk-12" value="Update location marker" style="rounded=1;whiteSpace=wrap;html=1;fontSize=12;glass=0;strokeWidth=1;shadow=0;fillColor=#66B2FF;" parent="WIyWlLk6GJQsqaUBKTNV-1" vertex="1">
          <mxGeometry x="560" y="840" width="100" height="40" as="geometry" />
        </mxCell>
        <mxCell id="ssbct8zx-_CwylW5RjRk-13" value="Request image" style="rounded=1;whiteSpace=wrap;html=1;fontSize=12;glass=0;strokeWidth=1;shadow=0;" parent="WIyWlLk6GJQsqaUBKTNV-1" vertex="1">
          <mxGeometry x="560" y="740" width="100" height="40" as="geometry" />
        </mxCell>
        <mxCell id="pCW0Gb2x2I5zyQrK6hDG-4" style="edgeStyle=orthogonalEdgeStyle;rounded=0;orthogonalLoop=1;jettySize=auto;html=1;exitX=0.5;exitY=1;exitDx=0;exitDy=0;endArrow=block;endFill=0;endSize=8;" parent="WIyWlLk6GJQsqaUBKTNV-1" source="ssbct8zx-_CwylW5RjRk-13" target="ssbct8zx-_CwylW5RjRk-12" edge="1">
          <mxGeometry relative="1" as="geometry">
            <mxPoint x="339.7" y="860" as="sourcePoint" />
            <mxPoint x="609.7" y="900" as="targetPoint" />
          </mxGeometry>
        </mxCell>
        <mxCell id="pCW0Gb2x2I5zyQrK6hDG-7" value="Yes" style="rounded=0;html=1;jettySize=auto;orthogonalLoop=1;fontSize=11;endArrow=block;endFill=0;endSize=8;strokeWidth=1;shadow=0;labelBackgroundColor=none;edgeStyle=orthogonalEdgeStyle;entryX=0.5;entryY=0;entryDx=0;entryDy=0;" parent="WIyWlLk6GJQsqaUBKTNV-1" source="pCW0Gb2x2I5zyQrK6hDG-9" target="WIyWlLk6GJQsqaUBKTNV-3" edge="1">
          <mxGeometry y="20" relative="1" as="geometry">
            <mxPoint as="offset" />
          </mxGeometry>
        </mxCell>
        <mxCell id="pCW0Gb2x2I5zyQrK6hDG-8" value="No" style="edgeStyle=orthogonalEdgeStyle;rounded=0;html=1;jettySize=auto;orthogonalLoop=1;fontSize=11;endArrow=block;endFill=0;endSize=8;strokeWidth=1;shadow=0;labelBackgroundColor=none;" parent="WIyWlLk6GJQsqaUBKTNV-1" source="pCW0Gb2x2I5zyQrK6hDG-9" target="pCW0Gb2x2I5zyQrK6hDG-10" edge="1">
          <mxGeometry y="10" relative="1" as="geometry">
            <mxPoint as="offset" />
          </mxGeometry>
        </mxCell>
        <mxCell id="pCW0Gb2x2I5zyQrK6hDG-9" value="Is layer selectable ?" style="rhombus;whiteSpace=wrap;html=1;shadow=0;fontFamily=Helvetica;fontSize=12;align=center;strokeWidth=1;spacing=6;spacingTop=-4;" parent="WIyWlLk6GJQsqaUBKTNV-1" vertex="1">
          <mxGeometry x="560" y="150" width="100" height="80" as="geometry" />
        </mxCell>
        <mxCell id="pCW0Gb2x2I5zyQrK6hDG-10" value="Stop" style="rounded=1;whiteSpace=wrap;html=1;fontSize=12;glass=0;strokeWidth=1;shadow=0;" parent="WIyWlLk6GJQsqaUBKTNV-1" vertex="1">
          <mxGeometry x="730" y="170" width="50" height="40" as="geometry" />
        </mxCell>
        <mxCell id="pCW0Gb2x2I5zyQrK6hDG-15" value="Fill view" style="rounded=1;whiteSpace=wrap;html=1;fontSize=12;glass=0;strokeWidth=1;shadow=0;" parent="WIyWlLk6GJQsqaUBKTNV-1" vertex="1">
          <mxGeometry x="985.0000000000001" y="840" width="100" height="40" as="geometry" />
        </mxCell>
        <mxCell id="pCW0Gb2x2I5zyQrK6hDG-16" style="edgeStyle=orthogonalEdgeStyle;rounded=0;orthogonalLoop=1;jettySize=auto;html=1;exitX=0.5;exitY=1;exitDx=0;exitDy=0;entryX=0.5;entryY=0;entryDx=0;entryDy=0;endArrow=block;endFill=0;endSize=8;" parent="WIyWlLk6GJQsqaUBKTNV-1" source="pCW0Gb2x2I5zyQrK6hDG-17" target="pCW0Gb2x2I5zyQrK6hDG-15" edge="1">
          <mxGeometry relative="1" as="geometry">
            <mxPoint x="1022.52" y="830" as="targetPoint" />
          </mxGeometry>
        </mxCell>
        <mxCell id="pCW0Gb2x2I5zyQrK6hDG-17" value="Get or generate schema" style="rounded=1;whiteSpace=wrap;html=1;fontSize=12;glass=0;strokeWidth=1;shadow=0;" parent="WIyWlLk6GJQsqaUBKTNV-1" vertex="1">
          <mxGeometry x="987.5000000000001" y="740" width="95" height="40" as="geometry" />
        </mxCell>
        <mxCell id="pCW0Gb2x2I5zyQrK6hDG-20" value="Time changed" style="rounded=1;whiteSpace=wrap;html=1;fontSize=12;glass=0;strokeWidth=1;shadow=0;fillColor=#009900;" parent="WIyWlLk6GJQsqaUBKTNV-1" vertex="1">
          <mxGeometry x="370" y="1090" width="126" height="40" as="geometry" />
        </mxCell>
        <mxCell id="pCW0Gb2x2I5zyQrK6hDG-21" style="edgeStyle=orthogonalEdgeStyle;rounded=0;orthogonalLoop=1;jettySize=auto;html=1;exitX=0.25;exitY=0;exitDx=0;exitDy=0;entryX=1;entryY=0.5;entryDx=0;entryDy=0;endArrow=block;endFill=0;endSize=8;strokeColor=#009900;strokeWidth=2;" parent="WIyWlLk6GJQsqaUBKTNV-1" source="pCW0Gb2x2I5zyQrK6hDG-20" target="ssbct8zx-_CwylW5RjRk-0" edge="1">
          <mxGeometry relative="1" as="geometry">
            <mxPoint x="265.02" y="1060" as="sourcePoint" />
            <mxPoint x="372.52" y="990" as="targetPoint" />
          </mxGeometry>
        </mxCell>
        <mxCell id="pCW0Gb2x2I5zyQrK6hDG-22" style="edgeStyle=orthogonalEdgeStyle;rounded=0;orthogonalLoop=1;jettySize=auto;html=1;exitX=0.75;exitY=0;exitDx=0;exitDy=0;entryX=0;entryY=0.5;entryDx=0;entryDy=0;endArrow=block;endFill=0;endSize=8;strokeWidth=2;strokeColor=#009900;" parent="WIyWlLk6GJQsqaUBKTNV-1" source="pCW0Gb2x2I5zyQrK6hDG-20" target="ssbct8zx-_CwylW5RjRk-13" edge="1">
          <mxGeometry relative="1" as="geometry">
            <mxPoint x="406.52" y="1220" as="sourcePoint" />
            <mxPoint x="406.52" y="989" as="targetPoint" />
          </mxGeometry>
        </mxCell>
        <mxCell id="pCW0Gb2x2I5zyQrK6hDG-23" value="Probe location selected" style="rounded=1;whiteSpace=wrap;html=1;fontSize=12;glass=0;strokeWidth=1;shadow=0;fillColor=#CCCC00;" parent="WIyWlLk6GJQsqaUBKTNV-1" vertex="1">
          <mxGeometry x="130" y="290" width="120" height="40" as="geometry" />
        </mxCell>
        <mxCell id="pCW0Gb2x2I5zyQrK6hDG-24" style="edgeStyle=orthogonalEdgeStyle;rounded=0;orthogonalLoop=1;jettySize=auto;html=1;endArrow=block;endFill=0;endSize=8;entryX=0;entryY=0.5;entryDx=0;entryDy=0;" parent="WIyWlLk6GJQsqaUBKTNV-1" source="vfSfb78cWZUa1gDCjAym-16" target="WIyWlLk6GJQsqaUBKTNV-3" edge="1">
          <mxGeometry relative="1" as="geometry">
            <mxPoint x="120" y="1020" as="sourcePoint" />
            <mxPoint x="40" y="120" as="targetPoint" />
          </mxGeometry>
        </mxCell>
        <mxCell id="pCW0Gb2x2I5zyQrK6hDG-25" value="Window widget changed" style="rounded=1;whiteSpace=wrap;html=1;fontSize=12;glass=0;strokeWidth=1;shadow=0;fillColor=#CCCC00;" parent="WIyWlLk6GJQsqaUBKTNV-1" vertex="1">
          <mxGeometry x="880" y="420" width="96" height="40" as="geometry" />
        </mxCell>
        <mxCell id="pCW0Gb2x2I5zyQrK6hDG-29" value="Destroy current widget" style="rounded=1;whiteSpace=wrap;html=1;fontSize=12;glass=0;strokeWidth=1;shadow=0;" parent="WIyWlLk6GJQsqaUBKTNV-1" vertex="1">
          <mxGeometry x="1043" y="290" width="80" height="40" as="geometry" />
        </mxCell>
        <mxCell id="pCW0Gb2x2I5zyQrK6hDG-30" style="edgeStyle=orthogonalEdgeStyle;rounded=0;orthogonalLoop=1;jettySize=auto;html=1;exitX=1;exitY=0.5;exitDx=0;exitDy=0;entryX=0;entryY=0.5;entryDx=0;entryDy=0;endArrow=block;endFill=0;endSize=8;" parent="WIyWlLk6GJQsqaUBKTNV-1" source="vfSfb78cWZUa1gDCjAym-10" target="pCW0Gb2x2I5zyQrK6hDG-29" edge="1">
          <mxGeometry relative="1" as="geometry">
            <mxPoint x="875.5" y="-40" as="sourcePoint" />
            <mxPoint x="983" y="-110" as="targetPoint" />
          </mxGeometry>
        </mxCell>
        <mxCell id="pCW0Gb2x2I5zyQrK6hDG-33" value="Remove&lt;br&gt;marker" style="rounded=1;whiteSpace=wrap;html=1;fontSize=12;glass=0;strokeWidth=1;shadow=0;fillColor=#66B2FF;" parent="WIyWlLk6GJQsqaUBKTNV-1" vertex="1">
          <mxGeometry x="1193" y="290" width="65" height="40" as="geometry" />
        </mxCell>
        <mxCell id="pCW0Gb2x2I5zyQrK6hDG-34" style="edgeStyle=orthogonalEdgeStyle;rounded=0;orthogonalLoop=1;jettySize=auto;html=1;exitX=1;exitY=0.5;exitDx=0;exitDy=0;endArrow=block;endFill=0;endSize=8;" parent="WIyWlLk6GJQsqaUBKTNV-1" source="pCW0Gb2x2I5zyQrK6hDG-29" target="pCW0Gb2x2I5zyQrK6hDG-33" edge="1">
          <mxGeometry relative="1" as="geometry">
            <mxPoint x="875.5" y="-40" as="sourcePoint" />
            <mxPoint x="1203" y="310" as="targetPoint" />
          </mxGeometry>
        </mxCell>
        <mxCell id="vfSfb78cWZUa1gDCjAym-0" value="Feature clicked" style="rounded=1;whiteSpace=wrap;html=1;fontSize=12;glass=0;strokeWidth=1;shadow=0;fillColor=#CCCC00;" parent="WIyWlLk6GJQsqaUBKTNV-1" vertex="1">
          <mxGeometry x="550" y="50" width="120" height="40" as="geometry" />
        </mxCell>
        <mxCell id="WIyWlLk6GJQsqaUBKTNV-3" value="Update selection" style="rounded=1;whiteSpace=wrap;html=1;fontSize=12;glass=0;strokeWidth=1;shadow=0;" parent="WIyWlLk6GJQsqaUBKTNV-1" vertex="1">
          <mxGeometry x="550" y="290" width="120" height="40" as="geometry" />
        </mxCell>
        <mxCell id="vfSfb78cWZUa1gDCjAym-4" value="Create widget" style="rounded=1;whiteSpace=wrap;html=1;fontSize=12;glass=0;strokeWidth=1;shadow=0;" parent="WIyWlLk6GJQsqaUBKTNV-1" vertex="1">
          <mxGeometry x="460.30000000000007" y="540" width="120" height="40" as="geometry" />
        </mxCell>
        <mxCell id="vfSfb78cWZUa1gDCjAym-6" style="edgeStyle=orthogonalEdgeStyle;rounded=0;orthogonalLoop=1;jettySize=auto;html=1;exitX=0.5;exitY=1;exitDx=0;exitDy=0;endArrow=block;endFill=0;endSize=8;entryX=0.5;entryY=0;entryDx=0;entryDy=0;" parent="WIyWlLk6GJQsqaUBKTNV-1" source="WIyWlLk6GJQsqaUBKTNV-3" target="vfSfb78cWZUa1gDCjAym-38" edge="1">
          <mxGeometry relative="1" as="geometry">
            <mxPoint x="620" y="620" as="sourcePoint" />
            <mxPoint x="610" y="370" as="targetPoint" />
          </mxGeometry>
        </mxCell>
        <mxCell id="vfSfb78cWZUa1gDCjAym-10" value="Window closed" style="rounded=1;whiteSpace=wrap;html=1;fillColor=#CCCC00;" parent="WIyWlLk6GJQsqaUBKTNV-1" vertex="1">
          <mxGeometry x="893" y="290" width="70" height="40" as="geometry" />
        </mxCell>
        <mxCell id="vfSfb78cWZUa1gDCjAym-11" value="Update highlight marker" style="rounded=1;whiteSpace=wrap;html=1;fontSize=12;glass=0;strokeWidth=1;shadow=0;fillColor=#66B2FF;" parent="WIyWlLk6GJQsqaUBKTNV-1" vertex="1">
          <mxGeometry x="985.0000000000001" y="930" width="100" height="40" as="geometry" />
        </mxCell>
        <mxCell id="vfSfb78cWZUa1gDCjAym-12" style="edgeStyle=orthogonalEdgeStyle;rounded=0;orthogonalLoop=1;jettySize=auto;html=1;exitX=0.5;exitY=1;exitDx=0;exitDy=0;entryX=0.5;entryY=0;entryDx=0;entryDy=0;endArrow=block;endFill=0;endSize=8;" parent="WIyWlLk6GJQsqaUBKTNV-1" source="pCW0Gb2x2I5zyQrK6hDG-15" target="vfSfb78cWZUa1gDCjAym-11" edge="1">
          <mxGeometry relative="1" as="geometry">
            <mxPoint x="1020.02" y="880" as="sourcePoint" />
            <mxPoint x="1020.02" y="950" as="targetPoint" />
          </mxGeometry>
        </mxCell>
        <mxCell id="vfSfb78cWZUa1gDCjAym-13" style="edgeStyle=orthogonalEdgeStyle;rounded=0;orthogonalLoop=1;jettySize=auto;html=1;exitX=0.5;exitY=1;exitDx=0;exitDy=0;endArrow=block;endFill=0;endSize=8;entryX=1;entryY=0.5;entryDx=0;entryDy=0;" parent="WIyWlLk6GJQsqaUBKTNV-1" source="pCW0Gb2x2I5zyQrK6hDG-25" target="vfSfb78cWZUa1gDCjAym-4" edge="1">
          <mxGeometry relative="1" as="geometry">
            <mxPoint x="1173" y="520" as="sourcePoint" />
            <mxPoint x="928" y="540" as="targetPoint" />
          </mxGeometry>
        </mxCell>
        <mxCell id="vfSfb78cWZUa1gDCjAym-15" style="edgeStyle=orthogonalEdgeStyle;rounded=0;orthogonalLoop=1;jettySize=auto;html=1;exitX=0.5;exitY=0;exitDx=0;exitDy=0;endArrow=block;endFill=0;endSize=8;entryX=0.5;entryY=1;entryDx=0;entryDy=0;" parent="WIyWlLk6GJQsqaUBKTNV-1" source="pCW0Gb2x2I5zyQrK6hDG-25" target="pCW0Gb2x2I5zyQrK6hDG-29" edge="1">
          <mxGeometry relative="1" as="geometry">
            <mxPoint x="1133" y="400" as="sourcePoint" />
            <mxPoint x="1123" y="300" as="targetPoint" />
          </mxGeometry>
        </mxCell>
        <mxCell id="vfSfb78cWZUa1gDCjAym-16" value="Update probe marker" style="rounded=1;whiteSpace=wrap;html=1;fontSize=12;glass=0;strokeWidth=1;shadow=0;fillColor=#66B2FF;" parent="WIyWlLk6GJQsqaUBKTNV-1" vertex="1">
          <mxGeometry x="350" y="290" width="90" height="40" as="geometry" />
        </mxCell>
        <mxCell id="vfSfb78cWZUa1gDCjAym-17" style="edgeStyle=orthogonalEdgeStyle;rounded=0;orthogonalLoop=1;jettySize=auto;html=1;exitX=1;exitY=0.5;exitDx=0;exitDy=0;endArrow=block;endFill=0;endSize=8;entryX=0;entryY=0.5;entryDx=0;entryDy=0;" parent="WIyWlLk6GJQsqaUBKTNV-1" source="pCW0Gb2x2I5zyQrK6hDG-23" target="vfSfb78cWZUa1gDCjAym-16" edge="1">
          <mxGeometry relative="1" as="geometry">
            <mxPoint x="220" y="350" as="sourcePoint" />
            <mxPoint x="580" y="470" as="targetPoint" />
          </mxGeometry>
        </mxCell>
        <mxCell id="kpdP6daO70CKiv6XmIbO-0" style="edgeStyle=orthogonalEdgeStyle;rounded=0;orthogonalLoop=1;jettySize=auto;html=1;endArrow=block;endFill=0;strokeWidth=2;strokeColor=#919191;" parent="WIyWlLk6GJQsqaUBKTNV-1" source="vfSfb78cWZUa1gDCjAym-21" target="vfSfb78cWZUa1gDCjAym-51" edge="1">
          <mxGeometry relative="1" as="geometry" />
        </mxCell>
        <mxCell id="vfSfb78cWZUa1gDCjAym-21" value="View position changed" style="rounded=1;whiteSpace=wrap;html=1;fontSize=12;glass=0;strokeWidth=1;shadow=0;fillColor=#CCCC00;" parent="WIyWlLk6GJQsqaUBKTNV-1" vertex="1">
          <mxGeometry x="705.8" y="840" width="99" height="40" as="geometry" />
        </mxCell>
        <mxCell id="vfSfb78cWZUa1gDCjAym-22" style="edgeStyle=orthogonalEdgeStyle;rounded=0;orthogonalLoop=1;jettySize=auto;html=1;exitX=0;exitY=0.5;exitDx=0;exitDy=0;entryX=1;entryY=0.5;entryDx=0;entryDy=0;endArrow=block;endFill=0;endSize=8;" parent="WIyWlLk6GJQsqaUBKTNV-1" source="vfSfb78cWZUa1gDCjAym-21" target="ssbct8zx-_CwylW5RjRk-13" edge="1">
          <mxGeometry relative="1" as="geometry">
            <mxPoint x="528.2" y="1000" as="sourcePoint" />
            <mxPoint x="569.7" y="750" as="targetPoint" />
          </mxGeometry>
        </mxCell>
        <mxCell id="vfSfb78cWZUa1gDCjAym-24" value="Selection changed" style="rounded=1;whiteSpace=wrap;html=1;fontSize=12;glass=0;strokeWidth=1;shadow=0;fillColor=#009900;" parent="WIyWlLk6GJQsqaUBKTNV-1" vertex="1">
          <mxGeometry x="670" y="490" width="120" height="40" as="geometry" />
        </mxCell>
        <mxCell id="vfSfb78cWZUa1gDCjAym-25" style="edgeStyle=orthogonalEdgeStyle;rounded=0;orthogonalLoop=1;jettySize=auto;html=1;exitX=0.5;exitY=1;exitDx=0;exitDy=0;entryX=0.5;entryY=0;entryDx=0;entryDy=0;endArrow=block;endFill=0;endSize=8;strokeWidth=2;strokeColor=#009900;" parent="WIyWlLk6GJQsqaUBKTNV-1" source="vfSfb78cWZUa1gDCjAym-24" target="ssbct8zx-_CwylW5RjRk-13" edge="1">
          <mxGeometry relative="1" as="geometry">
            <mxPoint x="528.2" y="930" as="sourcePoint" />
            <mxPoint x="569.7" y="680" as="targetPoint" />
            <Array as="points">
              <mxPoint x="730" y="640" />
              <mxPoint x="610" y="640" />
            </Array>
          </mxGeometry>
        </mxCell>
        <mxCell id="vfSfb78cWZUa1gDCjAym-26" style="edgeStyle=orthogonalEdgeStyle;rounded=0;orthogonalLoop=1;jettySize=auto;html=1;exitX=0.5;exitY=1;exitDx=0;exitDy=0;entryX=0.5;entryY=0;entryDx=0;entryDy=0;endArrow=block;endFill=0;endSize=8;strokeWidth=2;strokeColor=#009900;" parent="WIyWlLk6GJQsqaUBKTNV-1" source="vfSfb78cWZUa1gDCjAym-24" target="ssbct8zx-_CwylW5RjRk-0" edge="1">
          <mxGeometry relative="1" as="geometry">
            <mxPoint x="819.7" y="1070" as="sourcePoint" />
            <mxPoint x="644.7" y="700" as="targetPoint" />
            <Array as="points">
              <mxPoint x="730" y="640" />
              <mxPoint x="153" y="640" />
            </Array>
          </mxGeometry>
        </mxCell>
        <mxCell id="vfSfb78cWZUa1gDCjAym-27" style="edgeStyle=orthogonalEdgeStyle;rounded=0;orthogonalLoop=1;jettySize=auto;html=1;exitX=0.5;exitY=1;exitDx=0;exitDy=0;endArrow=block;endFill=0;endSize=8;strokeColor=#009900;strokeWidth=2;" parent="WIyWlLk6GJQsqaUBKTNV-1" source="vfSfb78cWZUa1gDCjAym-24" target="pCW0Gb2x2I5zyQrK6hDG-17" edge="1">
          <mxGeometry relative="1" as="geometry">
            <mxPoint x="759.7" y="1090" as="sourcePoint" />
            <mxPoint x="185.01999999999992" y="680" as="targetPoint" />
            <Array as="points">
              <mxPoint x="730" y="640" />
              <mxPoint x="1035" y="640" />
            </Array>
          </mxGeometry>
        </mxCell>
        <mxCell id="vfSfb78cWZUa1gDCjAym-33" value="" style="group" parent="WIyWlLk6GJQsqaUBKTNV-1" vertex="1" connectable="0">
          <mxGeometry x="60" y="30" width="270" height="140" as="geometry" />
        </mxCell>
        <mxCell id="vfSfb78cWZUa1gDCjAym-23" value="Tools layer" style="rounded=1;whiteSpace=wrap;html=1;fontSize=12;glass=0;strokeWidth=1;shadow=0;fillColor=#66B2FF;" parent="vfSfb78cWZUa1gDCjAym-33" vertex="1">
          <mxGeometry x="20" y="10" width="110" height="40" as="geometry" />
        </mxCell>
        <mxCell id="vfSfb78cWZUa1gDCjAym-28" value="Watch" style="rounded=1;whiteSpace=wrap;html=1;fontSize=12;glass=0;strokeWidth=1;shadow=0;fillColor=#009900;" parent="vfSfb78cWZUa1gDCjAym-33" vertex="1">
          <mxGeometry x="23.409999999999997" y="70" width="103.18" height="40" as="geometry" />
        </mxCell>
        <mxCell id="vfSfb78cWZUa1gDCjAym-29" value="User interaction" style="rounded=1;whiteSpace=wrap;html=1;fillColor=#CCCC00;" parent="vfSfb78cWZUa1gDCjAym-33" vertex="1">
          <mxGeometry x="150" y="10" width="100" height="40" as="geometry" />
        </mxCell>
        <mxCell id="vfSfb78cWZUa1gDCjAym-32" value="LEGEND" style="rounded=1;whiteSpace=wrap;html=1;fillColor=#FFFFFF00;strokeWidth=2;strokeColor=#919191;verticalAlign=bottom;fontStyle=1" parent="vfSfb78cWZUa1gDCjAym-33" vertex="1">
          <mxGeometry width="270" height="140" as="geometry" />
        </mxCell>
        <mxCell id="vfSfb78cWZUa1gDCjAym-35" value="Yes" style="rounded=0;html=1;jettySize=auto;orthogonalLoop=1;fontSize=11;endArrow=block;endFill=0;endSize=8;strokeWidth=1;shadow=0;labelBackgroundColor=none;edgeStyle=orthogonalEdgeStyle;exitX=0.5;exitY=1;exitDx=0;exitDy=0;" parent="WIyWlLk6GJQsqaUBKTNV-1" source="vfSfb78cWZUa1gDCjAym-0" target="pCW0Gb2x2I5zyQrK6hDG-9" edge="1">
          <mxGeometry y="20" relative="1" as="geometry">
            <mxPoint as="offset" />
            <mxPoint x="620" y="250" as="sourcePoint" />
            <mxPoint x="620" y="300" as="targetPoint" />
          </mxGeometry>
        </mxCell>
        <mxCell id="vfSfb78cWZUa1gDCjAym-36" value="Yes" style="rounded=0;html=1;jettySize=auto;orthogonalLoop=1;fontSize=11;endArrow=block;endFill=0;endSize=8;strokeWidth=1;shadow=0;labelBackgroundColor=none;edgeStyle=orthogonalEdgeStyle;" parent="WIyWlLk6GJQsqaUBKTNV-1" source="vfSfb78cWZUa1gDCjAym-38" target="vfSfb78cWZUa1gDCjAym-4" edge="1">
          <mxGeometry y="20" relative="1" as="geometry">
            <mxPoint as="offset" />
            <mxPoint x="610" y="510" as="targetPoint" />
          </mxGeometry>
        </mxCell>
        <mxCell id="vfSfb78cWZUa1gDCjAym-37" value="No" style="edgeStyle=orthogonalEdgeStyle;rounded=0;html=1;jettySize=auto;orthogonalLoop=1;fontSize=11;endArrow=block;endFill=0;endSize=8;strokeWidth=1;shadow=0;labelBackgroundColor=none;exitX=1;exitY=0.5;exitDx=0;exitDy=0;entryX=0;entryY=0.5;entryDx=0;entryDy=0;" parent="WIyWlLk6GJQsqaUBKTNV-1" source="vfSfb78cWZUa1gDCjAym-38" target="vfSfb78cWZUa1gDCjAym-24" edge="1">
          <mxGeometry y="10" relative="1" as="geometry">
            <mxPoint as="offset" />
            <mxPoint x="840" y="540" as="targetPoint" />
          </mxGeometry>
        </mxCell>
        <mxCell id="vfSfb78cWZUa1gDCjAym-38" value="Is widget&lt;br&gt;closed ?" style="rhombus;whiteSpace=wrap;html=1;shadow=0;fontFamily=Helvetica;fontSize=12;align=center;strokeWidth=1;spacing=6;spacingTop=-4;" parent="WIyWlLk6GJQsqaUBKTNV-1" vertex="1">
          <mxGeometry x="470.3" y="400" width="100" height="80" as="geometry" />
        </mxCell>
        <mxCell id="vfSfb78cWZUa1gDCjAym-47" style="edgeStyle=orthogonalEdgeStyle;rounded=0;orthogonalLoop=1;jettySize=auto;html=1;endArrow=block;endFill=0;endSize=8;entryX=0.75;entryY=0;entryDx=0;entryDy=0;exitX=0.75;exitY=1;exitDx=0;exitDy=0;" parent="WIyWlLk6GJQsqaUBKTNV-1" source="WIyWlLk6GJQsqaUBKTNV-3" target="vfSfb78cWZUa1gDCjAym-24" edge="1">
          <mxGeometry relative="1" as="geometry">
            <mxPoint x="610" y="530" as="sourcePoint" />
            <mxPoint x="620" y="380" as="targetPoint" />
          </mxGeometry>
        </mxCell>
        <mxCell id="vfSfb78cWZUa1gDCjAym-48" value="Internal&lt;br&gt;state" style="ellipse;whiteSpace=wrap;html=1;strokeColor=#919191;strokeWidth=2;fillColor=#FFFFFF00;" parent="WIyWlLk6GJQsqaUBKTNV-1" vertex="1">
          <mxGeometry x="290" y="670" width="80" height="70" as="geometry" />
        </mxCell>
        <mxCell id="vfSfb78cWZUa1gDCjAym-51" value="Internal&lt;br&gt;state" style="ellipse;whiteSpace=wrap;html=1;strokeColor=#919191;strokeWidth=2;fillColor=#FFFFFF00;" parent="WIyWlLk6GJQsqaUBKTNV-1" vertex="1">
          <mxGeometry x="740" y="670" width="80" height="70" as="geometry" />
        </mxCell>
        <mxCell id="vfSfb78cWZUa1gDCjAym-52" value="Internal&lt;br&gt;state" style="ellipse;whiteSpace=wrap;html=1;strokeColor=#919191;strokeWidth=2;fillColor=#FFFFFF00;" parent="WIyWlLk6GJQsqaUBKTNV-1" vertex="1">
          <mxGeometry x="1110" y="670" width="80" height="70" as="geometry" />
        </mxCell>
        <mxCell id="vfSfb78cWZUa1gDCjAym-53" style="edgeStyle=orthogonalEdgeStyle;rounded=0;orthogonalLoop=1;jettySize=auto;html=1;exitX=0.5;exitY=1;exitDx=0;exitDy=0;endArrow=block;endFill=0;endSize=8;entryX=1;entryY=0;entryDx=0;entryDy=0;" parent="WIyWlLk6GJQsqaUBKTNV-1" source="vfSfb78cWZUa1gDCjAym-4" target="vfSfb78cWZUa1gDCjAym-48" edge="1">
          <mxGeometry relative="1" as="geometry">
            <mxPoint x="1133" y="320" as="sourcePoint" />
            <mxPoint x="1203" y="320" as="targetPoint" />
          </mxGeometry>
        </mxCell>
        <mxCell id="vfSfb78cWZUa1gDCjAym-54" style="edgeStyle=orthogonalEdgeStyle;rounded=0;orthogonalLoop=1;jettySize=auto;html=1;exitX=0.5;exitY=1;exitDx=0;exitDy=0;endArrow=block;endFill=0;endSize=8;entryX=1;entryY=0;entryDx=0;entryDy=0;" parent="WIyWlLk6GJQsqaUBKTNV-1" source="vfSfb78cWZUa1gDCjAym-4" target="vfSfb78cWZUa1gDCjAym-51" edge="1">
          <mxGeometry relative="1" as="geometry">
            <mxPoint x="530.3000000000002" y="590" as="sourcePoint" />
            <mxPoint x="368.2842712474619" y="690.2512626584708" as="targetPoint" />
          </mxGeometry>
        </mxCell>
        <mxCell id="vfSfb78cWZUa1gDCjAym-55" style="edgeStyle=orthogonalEdgeStyle;rounded=0;orthogonalLoop=1;jettySize=auto;html=1;exitX=0.5;exitY=1;exitDx=0;exitDy=0;endArrow=block;endFill=0;endSize=8;entryX=1;entryY=0;entryDx=0;entryDy=0;" parent="WIyWlLk6GJQsqaUBKTNV-1" source="vfSfb78cWZUa1gDCjAym-4" target="vfSfb78cWZUa1gDCjAym-52" edge="1">
          <mxGeometry relative="1" as="geometry">
            <mxPoint x="530.3000000000002" y="590" as="sourcePoint" />
            <mxPoint x="790" y="680" as="targetPoint" />
          </mxGeometry>
        </mxCell>
        <mxCell id="vfSfb78cWZUa1gDCjAym-56" style="edgeStyle=orthogonalEdgeStyle;rounded=0;orthogonalLoop=1;jettySize=auto;html=1;endArrow=block;endFill=0;endSize=8;exitX=0.75;exitY=0;exitDx=0;exitDy=0;strokeWidth=2;strokeColor=#919191;" parent="WIyWlLk6GJQsqaUBKTNV-1" source="ssbct8zx-_CwylW5RjRk-0" target="vfSfb78cWZUa1gDCjAym-48" edge="1">
          <mxGeometry relative="1" as="geometry">
            <mxPoint x="1133" y="320" as="sourcePoint" />
            <mxPoint x="1203" y="320" as="targetPoint" />
          </mxGeometry>
        </mxCell>
        <mxCell id="vfSfb78cWZUa1gDCjAym-57" style="edgeStyle=orthogonalEdgeStyle;rounded=0;orthogonalLoop=1;jettySize=auto;html=1;endArrow=block;endFill=0;endSize=8;exitX=0.75;exitY=0;exitDx=0;exitDy=0;strokeWidth=2;strokeColor=#919191;" parent="WIyWlLk6GJQsqaUBKTNV-1" source="ssbct8zx-_CwylW5RjRk-13" target="vfSfb78cWZUa1gDCjAym-51" edge="1">
          <mxGeometry relative="1" as="geometry">
            <mxPoint x="186.56999999999994" y="750" as="sourcePoint" />
            <mxPoint x="300" y="715" as="targetPoint" />
          </mxGeometry>
        </mxCell>
        <mxCell id="vfSfb78cWZUa1gDCjAym-58" style="edgeStyle=orthogonalEdgeStyle;rounded=0;orthogonalLoop=1;jettySize=auto;html=1;endArrow=block;endFill=0;endSize=8;exitX=1;exitY=0.5;exitDx=0;exitDy=0;strokeColor=#919191;strokeWidth=2;" parent="WIyWlLk6GJQsqaUBKTNV-1" source="pCW0Gb2x2I5zyQrK6hDG-15" target="vfSfb78cWZUa1gDCjAym-52" edge="1">
          <mxGeometry relative="1" as="geometry">
            <mxPoint x="670" y="750" as="sourcePoint" />
            <mxPoint x="750" y="715" as="targetPoint" />
          </mxGeometry>
        </mxCell>
      </root>
    </mxGraphModel>
  </diagram>
  <diagram id="drjzPMCBfd56ZQEKtEi_" name="Version 2">
    <mxGraphModel dx="1422" dy="1963" grid="1" gridSize="10" guides="1" tooltips="1" connect="1" arrows="1" fold="1" page="1" pageScale="1" pageWidth="827" pageHeight="1169" background="#ffffff" math="0" shadow="0">
      <root>
        <mxCell id="V2hWgAb3W8Thl60gHnTr-0" />
        <mxCell id="V2hWgAb3W8Thl60gHnTr-1" parent="V2hWgAb3W8Thl60gHnTr-0" />
        <mxCell id="UZxpzEzR6JHPjv615JEX-142" value="mixin.feature-selection" style="rounded=1;whiteSpace=wrap;html=1;fillColor=#bac8d3;arcSize=6;verticalAlign=top;fontStyle=1;strokeColor=#23445d;" parent="V2hWgAb3W8Thl60gHnTr-1" vertex="1">
          <mxGeometry x="500" y="-10" width="300" height="370" as="geometry" />
        </mxCell>
        <mxCell id="UZxpzEzR6JHPjv615JEX-0" value="&lt;span style=&quot;font-size: 11px ; font-weight: 700&quot;&gt;Mapillary&lt;/span&gt;" style="rounded=1;whiteSpace=wrap;html=1;strokeColor=#23445d;strokeWidth=2;fillColor=#bac8d3;verticalAlign=bottom;arcSize=3;" parent="V2hWgAb3W8Thl60gHnTr-1" vertex="1">
          <mxGeometry x="455.3" y="591.25" width="310" height="437.5" as="geometry" />
        </mxCell>
        <mxCell id="UZxpzEzR6JHPjv615JEX-1" value="&lt;span style=&quot;font-size: 11px&quot;&gt;&lt;b&gt;Information box&lt;br&gt;&lt;/b&gt;&lt;/span&gt;" style="rounded=1;whiteSpace=wrap;html=1;strokeColor=#23445d;strokeWidth=2;fillColor=#bac8d3;verticalAlign=bottom;arcSize=4;" parent="V2hWgAb3W8Thl60gHnTr-1" vertex="1">
          <mxGeometry x="825.3" y="591.25" width="310" height="437.5" as="geometry" />
        </mxCell>
        <mxCell id="UZxpzEzR6JHPjv615JEX-2" value="&lt;span style=&quot;font-size: 11px ; font-weight: 700&quot;&gt;TimeSeries&lt;/span&gt;" style="rounded=1;whiteSpace=wrap;html=1;strokeColor=#23445d;strokeWidth=2;fillColor=#bac8d3;verticalAlign=bottom;arcSize=3;" parent="V2hWgAb3W8Thl60gHnTr-1" vertex="1">
          <mxGeometry x="85.3" y="593.75" width="310" height="435" as="geometry" />
        </mxCell>
        <mxCell id="UZxpzEzR6JHPjv615JEX-3" value="No" style="rounded=0;html=1;jettySize=auto;orthogonalLoop=1;fontSize=11;endArrow=block;endFill=0;endSize=8;strokeWidth=1;shadow=0;labelBackgroundColor=none;edgeStyle=orthogonalEdgeStyle;" parent="V2hWgAb3W8Thl60gHnTr-1" source="UZxpzEzR6JHPjv615JEX-5" target="UZxpzEzR6JHPjv615JEX-6" edge="1">
          <mxGeometry x="0.3333" y="20" relative="1" as="geometry">
            <mxPoint as="offset" />
          </mxGeometry>
        </mxCell>
        <mxCell id="UZxpzEzR6JHPjv615JEX-4" value="Yes" style="edgeStyle=orthogonalEdgeStyle;rounded=0;html=1;jettySize=auto;orthogonalLoop=1;fontSize=11;endArrow=block;endFill=0;endSize=8;strokeWidth=1;shadow=0;labelBackgroundColor=none;" parent="V2hWgAb3W8Thl60gHnTr-1" source="UZxpzEzR6JHPjv615JEX-5" target="UZxpzEzR6JHPjv615JEX-7" edge="1">
          <mxGeometry y="10" relative="1" as="geometry">
            <mxPoint as="offset" />
          </mxGeometry>
        </mxCell>
        <mxCell id="UZxpzEzR6JHPjv615JEX-5" value="Is measure ?" style="rhombus;whiteSpace=wrap;html=1;shadow=0;fontFamily=Helvetica;fontSize=12;align=center;strokeWidth=1;spacing=6;spacingTop=-4;" parent="V2hWgAb3W8Thl60gHnTr-1" vertex="1">
          <mxGeometry x="117.62" y="762.5" width="100" height="80" as="geometry" />
        </mxCell>
        <mxCell id="UZxpzEzR6JHPjv615JEX-6" value="Update measure marker" style="rounded=1;whiteSpace=wrap;html=1;fontSize=12;glass=0;strokeWidth=1;shadow=0;fillColor=#66B2FF;" parent="V2hWgAb3W8Thl60gHnTr-1" vertex="1">
          <mxGeometry x="114.80000000000001" y="882.5" width="105.63" height="40" as="geometry" />
        </mxCell>
        <mxCell id="UZxpzEzR6JHPjv615JEX-7" value="Update weather marker" style="rounded=1;whiteSpace=wrap;html=1;fontSize=12;glass=0;strokeWidth=1;shadow=0;fillColor=#66B2FF;" parent="V2hWgAb3W8Thl60gHnTr-1" vertex="1">
          <mxGeometry x="264.8" y="782.5" width="100" height="40" as="geometry" />
        </mxCell>
        <mxCell id="UZxpzEzR6JHPjv615JEX-8" style="edgeStyle=orthogonalEdgeStyle;rounded=0;orthogonalLoop=1;jettySize=auto;html=1;exitX=0.5;exitY=1;exitDx=0;exitDy=0;entryX=0.5;entryY=0;entryDx=0;entryDy=0;endArrow=block;endFill=0;endSize=8;" parent="V2hWgAb3W8Thl60gHnTr-1" source="UZxpzEzR6JHPjv615JEX-9" target="UZxpzEzR6JHPjv615JEX-5" edge="1">
          <mxGeometry relative="1" as="geometry" />
        </mxCell>
        <mxCell id="UZxpzEzR6JHPjv615JEX-9" value="Perform probing" style="rounded=1;whiteSpace=wrap;html=1;fontSize=12;glass=0;strokeWidth=1;shadow=0;" parent="V2hWgAb3W8Thl60gHnTr-1" vertex="1">
          <mxGeometry x="120.12" y="677.5" width="95" height="40" as="geometry" />
        </mxCell>
        <mxCell id="UZxpzEzR6JHPjv615JEX-10" value="Update location marker" style="rounded=1;whiteSpace=wrap;html=1;fontSize=12;glass=0;strokeWidth=1;shadow=0;fillColor=#66B2FF;" parent="V2hWgAb3W8Thl60gHnTr-1" vertex="1">
          <mxGeometry x="487.1" y="798.75" width="100" height="40" as="geometry" />
        </mxCell>
        <mxCell id="UZxpzEzR6JHPjv615JEX-11" value="Request image" style="rounded=1;whiteSpace=wrap;html=1;fontSize=12;glass=0;strokeWidth=1;shadow=0;" parent="V2hWgAb3W8Thl60gHnTr-1" vertex="1">
          <mxGeometry x="487.1" y="698.75" width="100" height="40" as="geometry" />
        </mxCell>
        <mxCell id="UZxpzEzR6JHPjv615JEX-12" style="edgeStyle=orthogonalEdgeStyle;rounded=0;orthogonalLoop=1;jettySize=auto;html=1;exitX=0.5;exitY=1;exitDx=0;exitDy=0;endArrow=block;endFill=0;endSize=8;" parent="V2hWgAb3W8Thl60gHnTr-1" source="UZxpzEzR6JHPjv615JEX-11" target="UZxpzEzR6JHPjv615JEX-10" edge="1">
          <mxGeometry relative="1" as="geometry">
            <mxPoint x="266.8" y="818.75" as="sourcePoint" />
            <mxPoint x="536.8" y="858.75" as="targetPoint" />
          </mxGeometry>
        </mxCell>
        <mxCell id="UZxpzEzR6JHPjv615JEX-13" value="Yes" style="rounded=0;html=1;jettySize=auto;orthogonalLoop=1;fontSize=11;endArrow=block;endFill=0;endSize=8;strokeWidth=1;shadow=0;labelBackgroundColor=none;edgeStyle=orthogonalEdgeStyle;entryX=0.5;entryY=0;entryDx=0;entryDy=0;" parent="V2hWgAb3W8Thl60gHnTr-1" source="UZxpzEzR6JHPjv615JEX-15" target="UZxpzEzR6JHPjv615JEX-31" edge="1">
          <mxGeometry y="20" relative="1" as="geometry">
            <mxPoint as="offset" />
          </mxGeometry>
        </mxCell>
        <mxCell id="UZxpzEzR6JHPjv615JEX-14" value="No" style="edgeStyle=orthogonalEdgeStyle;rounded=0;html=1;jettySize=auto;orthogonalLoop=1;fontSize=11;endArrow=block;endFill=0;endSize=8;strokeWidth=1;shadow=0;labelBackgroundColor=none;" parent="V2hWgAb3W8Thl60gHnTr-1" source="UZxpzEzR6JHPjv615JEX-15" target="UZxpzEzR6JHPjv615JEX-16" edge="1">
          <mxGeometry y="10" relative="1" as="geometry">
            <mxPoint as="offset" />
          </mxGeometry>
        </mxCell>
        <mxCell id="UZxpzEzR6JHPjv615JEX-15" value="Is layer selectable ?" style="rhombus;whiteSpace=wrap;html=1;shadow=0;fontFamily=Helvetica;fontSize=12;align=center;strokeWidth=1;spacing=6;spacingTop=-4;" parent="V2hWgAb3W8Thl60gHnTr-1" vertex="1">
          <mxGeometry x="559.5" y="110" width="100" height="80" as="geometry" />
        </mxCell>
        <mxCell id="UZxpzEzR6JHPjv615JEX-16" value="Stop" style="rounded=1;whiteSpace=wrap;html=1;fontSize=12;glass=0;strokeWidth=1;shadow=0;" parent="V2hWgAb3W8Thl60gHnTr-1" vertex="1">
          <mxGeometry x="715.3" y="130" width="50" height="40" as="geometry" />
        </mxCell>
        <mxCell id="UZxpzEzR6JHPjv615JEX-17" value="Fill view" style="rounded=1;whiteSpace=wrap;html=1;fontSize=12;glass=0;strokeWidth=1;shadow=0;" parent="V2hWgAb3W8Thl60gHnTr-1" vertex="1">
          <mxGeometry x="929.8" y="781.25" width="100" height="40" as="geometry" />
        </mxCell>
        <mxCell id="UZxpzEzR6JHPjv615JEX-18" style="edgeStyle=orthogonalEdgeStyle;rounded=0;orthogonalLoop=1;jettySize=auto;html=1;exitX=0.5;exitY=1;exitDx=0;exitDy=0;entryX=0.5;entryY=0;entryDx=0;entryDy=0;endArrow=block;endFill=0;endSize=8;" parent="V2hWgAb3W8Thl60gHnTr-1" source="UZxpzEzR6JHPjv615JEX-19" target="UZxpzEzR6JHPjv615JEX-17" edge="1">
          <mxGeometry relative="1" as="geometry">
            <mxPoint x="967.3199999999999" y="771.25" as="targetPoint" />
          </mxGeometry>
        </mxCell>
        <mxCell id="UZxpzEzR6JHPjv615JEX-19" value="Get or generate schema" style="rounded=1;whiteSpace=wrap;html=1;fontSize=12;glass=0;strokeWidth=1;shadow=0;" parent="V2hWgAb3W8Thl60gHnTr-1" vertex="1">
          <mxGeometry x="932.3" y="681.25" width="95" height="40" as="geometry" />
        </mxCell>
        <mxCell id="UZxpzEzR6JHPjv615JEX-129" style="edgeStyle=orthogonalEdgeStyle;rounded=0;orthogonalLoop=1;jettySize=auto;html=1;entryX=1;entryY=1;entryDx=0;entryDy=0;endArrow=block;endFill=0;strokeColor=#005700;fillColor=#008a00;" parent="V2hWgAb3W8Thl60gHnTr-1" source="UZxpzEzR6JHPjv615JEX-20" target="UZxpzEzR6JHPjv615JEX-2" edge="1">
          <mxGeometry relative="1" as="geometry" />
        </mxCell>
        <mxCell id="UZxpzEzR6JHPjv615JEX-130" style="edgeStyle=orthogonalEdgeStyle;rounded=0;orthogonalLoop=1;jettySize=auto;html=1;entryX=0.5;entryY=1;entryDx=0;entryDy=0;endArrow=block;endFill=0;strokeColor=#005700;fillColor=#008a00;" parent="V2hWgAb3W8Thl60gHnTr-1" source="UZxpzEzR6JHPjv615JEX-20" target="UZxpzEzR6JHPjv615JEX-0" edge="1">
          <mxGeometry relative="1" as="geometry" />
        </mxCell>
        <mxCell id="UZxpzEzR6JHPjv615JEX-20" value="Time changed" style="rounded=1;whiteSpace=wrap;html=1;fontSize=12;glass=0;strokeWidth=1;shadow=0;fillColor=#009900;" parent="V2hWgAb3W8Thl60gHnTr-1" vertex="1">
          <mxGeometry x="423.5" y="1100" width="126" height="40" as="geometry" />
        </mxCell>
        <mxCell id="UZxpzEzR6JHPjv615JEX-23" value="Probe location selected" style="rounded=1;whiteSpace=wrap;html=1;fontSize=12;glass=0;strokeWidth=1;shadow=0;fillColor=#CCCC00;" parent="V2hWgAb3W8Thl60gHnTr-1" vertex="1">
          <mxGeometry x="320" y="230" width="120" height="40" as="geometry" />
        </mxCell>
        <mxCell id="UZxpzEzR6JHPjv615JEX-25" value="Window widget changed" style="rounded=1;whiteSpace=wrap;html=1;fontSize=12;glass=0;strokeWidth=1;shadow=0;fillColor=#CCCC00;" parent="V2hWgAb3W8Thl60gHnTr-1" vertex="1">
          <mxGeometry x="344" y="390" width="96" height="40" as="geometry" />
        </mxCell>
        <mxCell id="UZxpzEzR6JHPjv615JEX-30" value="Feature clicked" style="rounded=1;whiteSpace=wrap;html=1;fontSize=12;glass=0;strokeWidth=1;shadow=0;fillColor=#CCCC00;" parent="V2hWgAb3W8Thl60gHnTr-1" vertex="1">
          <mxGeometry x="549.5" y="20" width="120" height="40" as="geometry" />
        </mxCell>
        <mxCell id="UZxpzEzR6JHPjv615JEX-138" style="edgeStyle=orthogonalEdgeStyle;rounded=0;orthogonalLoop=1;jettySize=auto;html=1;entryX=0.5;entryY=0;entryDx=0;entryDy=0;endArrow=block;endFill=0;strokeColor=#000000;strokeWidth=1;" parent="V2hWgAb3W8Thl60gHnTr-1" source="UZxpzEzR6JHPjv615JEX-31" target="UZxpzEzR6JHPjv615JEX-70" edge="1">
          <mxGeometry relative="1" as="geometry" />
        </mxCell>
        <mxCell id="UZxpzEzR6JHPjv615JEX-31" value="Update selection" style="rounded=1;whiteSpace=wrap;html=1;fontSize=12;glass=0;strokeWidth=1;shadow=0;" parent="V2hWgAb3W8Thl60gHnTr-1" vertex="1">
          <mxGeometry x="549.5" y="230" width="120" height="40" as="geometry" />
        </mxCell>
        <mxCell id="UZxpzEzR6JHPjv615JEX-77" style="edgeStyle=orthogonalEdgeStyle;rounded=0;orthogonalLoop=1;jettySize=auto;html=1;endArrow=block;endFill=0;exitX=0.5;exitY=1;exitDx=0;exitDy=0;" parent="V2hWgAb3W8Thl60gHnTr-1" source="UZxpzEzR6JHPjv615JEX-32" target="UZxpzEzR6JHPjv615JEX-1" edge="1">
          <mxGeometry relative="1" as="geometry">
            <mxPoint x="545.6333333333334" y="430" as="sourcePoint" />
            <Array as="points">
              <mxPoint x="610" y="480" />
              <mxPoint x="980" y="480" />
            </Array>
          </mxGeometry>
        </mxCell>
        <mxCell id="UZxpzEzR6JHPjv615JEX-32" value="Open widget" style="rounded=1;whiteSpace=wrap;html=1;fontSize=12;glass=0;strokeWidth=1;shadow=0;" parent="V2hWgAb3W8Thl60gHnTr-1" vertex="1">
          <mxGeometry x="549.5000000000001" y="390" width="120" height="40" as="geometry" />
        </mxCell>
        <mxCell id="UZxpzEzR6JHPjv615JEX-35" value="Update highlight marker" style="rounded=1;whiteSpace=wrap;html=1;fontSize=12;glass=0;strokeWidth=1;shadow=0;fillColor=#66B2FF;" parent="V2hWgAb3W8Thl60gHnTr-1" vertex="1">
          <mxGeometry x="929.8" y="871.25" width="100" height="40" as="geometry" />
        </mxCell>
        <mxCell id="UZxpzEzR6JHPjv615JEX-36" style="edgeStyle=orthogonalEdgeStyle;rounded=0;orthogonalLoop=1;jettySize=auto;html=1;exitX=0.5;exitY=1;exitDx=0;exitDy=0;entryX=0.5;entryY=0;entryDx=0;entryDy=0;endArrow=block;endFill=0;endSize=8;" parent="V2hWgAb3W8Thl60gHnTr-1" source="UZxpzEzR6JHPjv615JEX-17" target="UZxpzEzR6JHPjv615JEX-35" edge="1">
          <mxGeometry relative="1" as="geometry">
            <mxPoint x="964.8199999999999" y="821.25" as="sourcePoint" />
            <mxPoint x="964.8199999999999" y="891.25" as="targetPoint" />
          </mxGeometry>
        </mxCell>
        <mxCell id="UZxpzEzR6JHPjv615JEX-37" style="edgeStyle=orthogonalEdgeStyle;rounded=0;orthogonalLoop=1;jettySize=auto;html=1;endArrow=block;endFill=0;endSize=8;" parent="V2hWgAb3W8Thl60gHnTr-1" target="UZxpzEzR6JHPjv615JEX-32" edge="1">
          <mxGeometry relative="1" as="geometry">
            <mxPoint x="440" y="410" as="sourcePoint" />
            <mxPoint x="1018" y="390" as="targetPoint" />
          </mxGeometry>
        </mxCell>
        <mxCell id="UZxpzEzR6JHPjv615JEX-40" style="edgeStyle=orthogonalEdgeStyle;rounded=0;orthogonalLoop=1;jettySize=auto;html=1;exitX=1;exitY=0.5;exitDx=0;exitDy=0;endArrow=block;endFill=0;endSize=8;entryX=0;entryY=0.5;entryDx=0;entryDy=0;" parent="V2hWgAb3W8Thl60gHnTr-1" source="UZxpzEzR6JHPjv615JEX-23" target="UZxpzEzR6JHPjv615JEX-31" edge="1">
          <mxGeometry relative="1" as="geometry">
            <mxPoint x="227" y="290" as="sourcePoint" />
            <mxPoint x="382.79999999999995" y="250" as="targetPoint" />
          </mxGeometry>
        </mxCell>
        <mxCell id="UZxpzEzR6JHPjv615JEX-42" value="View position changed" style="rounded=1;whiteSpace=wrap;html=1;fontSize=12;glass=0;strokeWidth=1;shadow=0;fillColor=#CCCC00;" parent="V2hWgAb3W8Thl60gHnTr-1" vertex="1">
          <mxGeometry x="632.8999999999999" y="798.75" width="99" height="40" as="geometry" />
        </mxCell>
        <mxCell id="UZxpzEzR6JHPjv615JEX-43" style="edgeStyle=orthogonalEdgeStyle;rounded=0;orthogonalLoop=1;jettySize=auto;html=1;exitX=0;exitY=0.5;exitDx=0;exitDy=0;entryX=1;entryY=0.5;entryDx=0;entryDy=0;endArrow=block;endFill=0;endSize=8;" parent="V2hWgAb3W8Thl60gHnTr-1" source="UZxpzEzR6JHPjv615JEX-42" target="UZxpzEzR6JHPjv615JEX-11" edge="1">
          <mxGeometry relative="1" as="geometry">
            <mxPoint x="455.30000000000007" y="958.75" as="sourcePoint" />
            <mxPoint x="496.8" y="708.75" as="targetPoint" />
          </mxGeometry>
        </mxCell>
        <mxCell id="UZxpzEzR6JHPjv615JEX-48" value="" style="group" parent="V2hWgAb3W8Thl60gHnTr-1" vertex="1" connectable="0">
          <mxGeometry x="107" y="10" width="270" height="140" as="geometry" />
        </mxCell>
        <mxCell id="UZxpzEzR6JHPjv615JEX-49" value="Tools layer" style="rounded=1;whiteSpace=wrap;html=1;fontSize=12;glass=0;strokeWidth=1;shadow=0;fillColor=#66B2FF;" parent="UZxpzEzR6JHPjv615JEX-48" vertex="1">
          <mxGeometry x="20" y="10" width="110" height="40" as="geometry" />
        </mxCell>
        <mxCell id="UZxpzEzR6JHPjv615JEX-50" value="Watch" style="rounded=1;whiteSpace=wrap;html=1;fontSize=12;glass=0;strokeWidth=1;shadow=0;fillColor=#009900;" parent="UZxpzEzR6JHPjv615JEX-48" vertex="1">
          <mxGeometry x="23.409999999999997" y="70" width="103.18" height="40" as="geometry" />
        </mxCell>
        <mxCell id="UZxpzEzR6JHPjv615JEX-51" value="User interaction" style="rounded=1;whiteSpace=wrap;html=1;fillColor=#CCCC00;" parent="UZxpzEzR6JHPjv615JEX-48" vertex="1">
          <mxGeometry x="150" y="10" width="100" height="40" as="geometry" />
        </mxCell>
        <mxCell id="UZxpzEzR6JHPjv615JEX-52" value="LEGEND" style="rounded=1;whiteSpace=wrap;html=1;fillColor=#FFFFFF00;strokeWidth=2;strokeColor=#919191;verticalAlign=bottom;fontStyle=1" parent="UZxpzEzR6JHPjv615JEX-48" vertex="1">
          <mxGeometry width="270" height="140" as="geometry" />
        </mxCell>
        <mxCell id="UZxpzEzR6JHPjv615JEX-53" value="" style="rounded=0;html=1;jettySize=auto;orthogonalLoop=1;fontSize=11;endArrow=block;endFill=0;endSize=8;strokeWidth=1;shadow=0;labelBackgroundColor=none;edgeStyle=orthogonalEdgeStyle;exitX=0.5;exitY=1;exitDx=0;exitDy=0;" parent="V2hWgAb3W8Thl60gHnTr-1" source="UZxpzEzR6JHPjv615JEX-30" target="UZxpzEzR6JHPjv615JEX-15" edge="1">
          <mxGeometry y="20" relative="1" as="geometry">
            <mxPoint as="offset" />
            <mxPoint x="627" y="200" as="sourcePoint" />
            <mxPoint x="627" y="250" as="targetPoint" />
          </mxGeometry>
        </mxCell>
        <mxCell id="UZxpzEzR6JHPjv615JEX-54" value="" style="rounded=0;html=1;jettySize=auto;orthogonalLoop=1;fontSize=11;endArrow=block;endFill=0;endSize=8;strokeWidth=1;shadow=0;labelBackgroundColor=none;edgeStyle=orthogonalEdgeStyle;exitX=0.479;exitY=0.992;exitDx=0;exitDy=0;exitPerimeter=0;" parent="V2hWgAb3W8Thl60gHnTr-1" source="UZxpzEzR6JHPjv615JEX-70" target="UZxpzEzR6JHPjv615JEX-32" edge="1">
          <mxGeometry y="20" relative="1" as="geometry">
            <mxPoint as="offset" />
            <mxPoint x="700" y="360" as="targetPoint" />
            <mxPoint x="610.3000000000002" y="330" as="sourcePoint" />
            <Array as="points">
              <mxPoint x="609" y="350" />
            </Array>
          </mxGeometry>
        </mxCell>
        <mxCell id="UZxpzEzR6JHPjv615JEX-119" style="edgeStyle=orthogonalEdgeStyle;rounded=0;orthogonalLoop=1;jettySize=auto;html=1;entryX=0.773;entryY=0.031;entryDx=0;entryDy=0;entryPerimeter=0;endArrow=block;endFill=0;fillColor=#e1d5e7;strokeColor=#9673a6;strokeWidth=2;" parent="V2hWgAb3W8Thl60gHnTr-1" source="UZxpzEzR6JHPjv615JEX-58" target="UZxpzEzR6JHPjv615JEX-109" edge="1">
          <mxGeometry relative="1" as="geometry" />
        </mxCell>
        <mxCell id="UZxpzEzR6JHPjv615JEX-58" value="Internal&lt;br&gt;state" style="ellipse;whiteSpace=wrap;html=1;strokeColor=#9673a6;strokeWidth=2;fillColor=#e1d5e7;" parent="V2hWgAb3W8Thl60gHnTr-1" vertex="1">
          <mxGeometry x="1020" y="500" width="80" height="70" as="geometry" />
        </mxCell>
        <mxCell id="UZxpzEzR6JHPjv615JEX-118" style="edgeStyle=orthogonalEdgeStyle;rounded=0;orthogonalLoop=1;jettySize=auto;html=1;entryX=0.846;entryY=0.031;entryDx=0;entryDy=0;entryPerimeter=0;endArrow=block;endFill=0;fillColor=#e1d5e7;strokeColor=#9673a6;strokeWidth=2;" parent="V2hWgAb3W8Thl60gHnTr-1" source="UZxpzEzR6JHPjv615JEX-59" target="UZxpzEzR6JHPjv615JEX-108" edge="1">
          <mxGeometry relative="1" as="geometry" />
        </mxCell>
        <mxCell id="UZxpzEzR6JHPjv615JEX-59" value="Internal&lt;br&gt;state" style="ellipse;whiteSpace=wrap;html=1;strokeColor=#9673a6;strokeWidth=2;fillColor=#e1d5e7;" parent="V2hWgAb3W8Thl60gHnTr-1" vertex="1">
          <mxGeometry x="670" y="500" width="80" height="70" as="geometry" />
        </mxCell>
        <mxCell id="UZxpzEzR6JHPjv615JEX-61" style="edgeStyle=orthogonalEdgeStyle;rounded=0;orthogonalLoop=1;jettySize=auto;html=1;exitX=0.5;exitY=1;exitDx=0;exitDy=0;endArrow=block;endFill=0;endSize=8;" parent="V2hWgAb3W8Thl60gHnTr-1" source="UZxpzEzR6JHPjv615JEX-32" target="UZxpzEzR6JHPjv615JEX-2" edge="1">
          <mxGeometry relative="1" as="geometry">
            <mxPoint x="545.6000000000001" y="430" as="sourcePoint" />
            <mxPoint x="1228.3" y="170" as="targetPoint" />
            <Array as="points">
              <mxPoint x="610" y="480" />
              <mxPoint x="225" y="480" />
            </Array>
          </mxGeometry>
        </mxCell>
        <mxCell id="UZxpzEzR6JHPjv615JEX-62" style="edgeStyle=orthogonalEdgeStyle;rounded=0;orthogonalLoop=1;jettySize=auto;html=1;endArrow=block;endFill=0;endSize=8;entryX=0.5;entryY=0;entryDx=0;entryDy=0;" parent="V2hWgAb3W8Thl60gHnTr-1" target="UZxpzEzR6JHPjv615JEX-0" edge="1">
          <mxGeometry relative="1" as="geometry">
            <mxPoint x="610" y="430" as="sourcePoint" />
            <mxPoint x="393.5842712474619" y="540.2512626584708" as="targetPoint" />
            <Array as="points">
              <mxPoint x="610" y="430" />
            </Array>
          </mxGeometry>
        </mxCell>
        <mxCell id="UZxpzEzR6JHPjv615JEX-124" style="edgeStyle=orthogonalEdgeStyle;rounded=0;orthogonalLoop=1;jettySize=auto;html=1;entryX=0.5;entryY=0;entryDx=0;entryDy=0;endArrow=block;endFill=0;strokeColor=#CC99FF;" parent="V2hWgAb3W8Thl60gHnTr-1" source="UZxpzEzR6JHPjv615JEX-70" target="UZxpzEzR6JHPjv615JEX-59" edge="1">
          <mxGeometry relative="1" as="geometry">
            <Array as="points">
              <mxPoint x="710" y="330" />
            </Array>
          </mxGeometry>
        </mxCell>
        <mxCell id="UZxpzEzR6JHPjv615JEX-125" style="edgeStyle=orthogonalEdgeStyle;rounded=0;orthogonalLoop=1;jettySize=auto;html=1;entryX=0.5;entryY=0;entryDx=0;entryDy=0;endArrow=block;endFill=0;strokeColor=#CC99FF;strokeWidth=2;" parent="V2hWgAb3W8Thl60gHnTr-1" source="UZxpzEzR6JHPjv615JEX-70" target="UZxpzEzR6JHPjv615JEX-58" edge="1">
          <mxGeometry relative="1" as="geometry">
            <Array as="points">
              <mxPoint x="710" y="330" />
              <mxPoint x="710" y="460" />
              <mxPoint x="1060" y="460" />
            </Array>
          </mxGeometry>
        </mxCell>
        <mxCell id="UZxpzEzR6JHPjv615JEX-126" style="edgeStyle=orthogonalEdgeStyle;rounded=0;orthogonalLoop=1;jettySize=auto;html=1;entryX=0.5;entryY=0;entryDx=0;entryDy=0;endArrow=block;endFill=0;strokeColor=#CC99FF;strokeWidth=2;" parent="V2hWgAb3W8Thl60gHnTr-1" source="UZxpzEzR6JHPjv615JEX-70" target="UZxpzEzR6JHPjv615JEX-116" edge="1">
          <mxGeometry relative="1" as="geometry">
            <Array as="points">
              <mxPoint x="710" y="330" />
              <mxPoint x="710" y="460" />
              <mxPoint x="345" y="460" />
            </Array>
          </mxGeometry>
        </mxCell>
        <mxCell id="UZxpzEzR6JHPjv615JEX-70" value="Clear widget states" style="rounded=1;whiteSpace=wrap;html=1;fontSize=12;glass=0;strokeWidth=1;shadow=0;" parent="V2hWgAb3W8Thl60gHnTr-1" vertex="1">
          <mxGeometry x="549.5" y="310" width="120" height="40" as="geometry" />
        </mxCell>
        <mxCell id="UZxpzEzR6JHPjv615JEX-71" value="Created hook" style="rounded=1;whiteSpace=wrap;html=1;strokeColor=#82b366;strokeWidth=2;fillColor=#d5e8d4;verticalAlign=middle;" parent="V2hWgAb3W8Thl60gHnTr-1" vertex="1">
          <mxGeometry x="94.8" y="608.75" width="290" height="40" as="geometry" />
        </mxCell>
        <mxCell id="UZxpzEzR6JHPjv615JEX-80" value="Before destroy hook" style="rounded=1;whiteSpace=wrap;html=1;strokeColor=#b85450;strokeWidth=2;fillColor=#f8cecc;verticalAlign=middle;" parent="V2hWgAb3W8Thl60gHnTr-1" vertex="1">
          <mxGeometry x="834.8" y="961.25" width="290" height="37.5" as="geometry" />
        </mxCell>
        <mxCell id="UZxpzEzR6JHPjv615JEX-81" value="created hook" style="rounded=1;whiteSpace=wrap;html=1;strokeColor=#82b366;strokeWidth=2;fillColor=#d5e8d4;verticalAlign=bottom;arcSize=2;" parent="V2hWgAb3W8Thl60gHnTr-1" vertex="1">
          <mxGeometry x="1250" y="136.88" width="320" height="460" as="geometry" />
        </mxCell>
        <mxCell id="UZxpzEzR6JHPjv615JEX-92" value="Yes" style="edgeStyle=orthogonalEdgeStyle;rounded=0;orthogonalLoop=1;jettySize=auto;html=1;entryX=0.5;entryY=0;entryDx=0;entryDy=0;endArrow=block;endFill=0;exitX=0;exitY=0.5;exitDx=0;exitDy=0;strokeWidth=2;" parent="V2hWgAb3W8Thl60gHnTr-1" source="UZxpzEzR6JHPjv615JEX-83" target="UZxpzEzR6JHPjv615JEX-90" edge="1">
          <mxGeometry x="0.1667" relative="1" as="geometry">
            <mxPoint as="offset" />
          </mxGeometry>
        </mxCell>
        <mxCell id="UZxpzEzR6JHPjv615JEX-97" value="No" style="edgeStyle=orthogonalEdgeStyle;rounded=0;orthogonalLoop=1;jettySize=auto;html=1;entryX=0.542;entryY=0.006;entryDx=0;entryDy=0;entryPerimeter=0;endArrow=block;endFill=0;strokeWidth=2;" parent="V2hWgAb3W8Thl60gHnTr-1" source="UZxpzEzR6JHPjv615JEX-83" target="UZxpzEzR6JHPjv615JEX-94" edge="1">
          <mxGeometry x="0.5688" relative="1" as="geometry">
            <Array as="points">
              <mxPoint x="1410" y="336.88" />
              <mxPoint x="1504" y="336.88" />
            </Array>
            <mxPoint as="offset" />
          </mxGeometry>
        </mxCell>
        <mxCell id="UZxpzEzR6JHPjv615JEX-83" value="has state ?" style="rhombus;whiteSpace=wrap;html=1;shadow=0;fontFamily=Helvetica;fontSize=12;align=center;strokeWidth=1;spacing=6;spacingTop=-4;" parent="V2hWgAb3W8Thl60gHnTr-1" vertex="1">
          <mxGeometry x="1360" y="296.88" width="100" height="80" as="geometry" />
        </mxCell>
        <mxCell id="UZxpzEzR6JHPjv615JEX-85" style="edgeStyle=orthogonalEdgeStyle;rounded=0;orthogonalLoop=1;jettySize=auto;html=1;endArrow=block;endFill=0;strokeWidth=2;" parent="V2hWgAb3W8Thl60gHnTr-1" source="UZxpzEzR6JHPjv615JEX-84" target="UZxpzEzR6JHPjv615JEX-83" edge="1">
          <mxGeometry relative="1" as="geometry" />
        </mxCell>
        <mxCell id="UZxpzEzR6JHPjv615JEX-84" value="Default initialisation" style="rounded=1;whiteSpace=wrap;html=1;fontSize=12;glass=0;strokeWidth=1;shadow=0;" parent="V2hWgAb3W8Thl60gHnTr-1" vertex="1">
          <mxGeometry x="1360" y="206.88" width="100" height="50" as="geometry" />
        </mxCell>
        <mxCell id="UZxpzEzR6JHPjv615JEX-89" style="edgeStyle=orthogonalEdgeStyle;rounded=0;orthogonalLoop=1;jettySize=auto;html=1;endArrow=block;endFill=0;strokeWidth=2;" parent="V2hWgAb3W8Thl60gHnTr-1" source="UZxpzEzR6JHPjv615JEX-88" target="UZxpzEzR6JHPjv615JEX-84" edge="1">
          <mxGeometry relative="1" as="geometry" />
        </mxCell>
        <mxCell id="UZxpzEzR6JHPjv615JEX-88" value="" style="ellipse;whiteSpace=wrap;html=1;aspect=fixed;" parent="V2hWgAb3W8Thl60gHnTr-1" vertex="1">
          <mxGeometry x="1400" y="156.88" width="20" height="20" as="geometry" />
        </mxCell>
        <mxCell id="UZxpzEzR6JHPjv615JEX-98" style="edgeStyle=orthogonalEdgeStyle;rounded=0;orthogonalLoop=1;jettySize=auto;html=1;entryX=0.5;entryY=0;entryDx=0;entryDy=0;endArrow=block;endFill=0;strokeWidth=2;" parent="V2hWgAb3W8Thl60gHnTr-1" source="UZxpzEzR6JHPjv615JEX-90" target="UZxpzEzR6JHPjv615JEX-91" edge="1">
          <mxGeometry relative="1" as="geometry">
            <Array as="points">
              <mxPoint x="1320" y="507.13" />
              <mxPoint x="1410" y="507.13" />
            </Array>
          </mxGeometry>
        </mxCell>
        <mxCell id="UZxpzEzR6JHPjv615JEX-90" value="Setup widget with state data" style="rounded=1;whiteSpace=wrap;html=1;fontSize=12;glass=0;strokeWidth=1;shadow=0;fillColor=#e1d5e7;strokeColor=#9673a6;" parent="V2hWgAb3W8Thl60gHnTr-1" vertex="1">
          <mxGeometry x="1270" y="406.88" width="100" height="50" as="geometry" />
        </mxCell>
        <mxCell id="UZxpzEzR6JHPjv615JEX-91" value="" style="ellipse;whiteSpace=wrap;html=1;aspect=fixed;fillColor=#000000;" parent="V2hWgAb3W8Thl60gHnTr-1" vertex="1">
          <mxGeometry x="1400" y="536.88" width="20" height="20" as="geometry" />
        </mxCell>
        <mxCell id="UZxpzEzR6JHPjv615JEX-99" style="edgeStyle=orthogonalEdgeStyle;rounded=0;orthogonalLoop=1;jettySize=auto;html=1;endArrow=block;endFill=0;strokeWidth=2;" parent="V2hWgAb3W8Thl60gHnTr-1" source="UZxpzEzR6JHPjv615JEX-94" edge="1">
          <mxGeometry relative="1" as="geometry">
            <mxPoint x="1410" y="537.13" as="targetPoint" />
            <Array as="points">
              <mxPoint x="1500" y="507.13" />
              <mxPoint x="1410" y="507.13" />
              <mxPoint x="1410" y="537.13" />
            </Array>
          </mxGeometry>
        </mxCell>
        <mxCell id="UZxpzEzR6JHPjv615JEX-94" value="Setup widget with computed data from selection" style="rounded=1;whiteSpace=wrap;html=1;fontSize=12;glass=0;strokeWidth=1;shadow=0;" parent="V2hWgAb3W8Thl60gHnTr-1" vertex="1">
          <mxGeometry x="1450" y="406.88" width="100" height="50" as="geometry" />
        </mxCell>
        <mxCell id="UZxpzEzR6JHPjv615JEX-100" value="before destroy hook" style="rounded=1;whiteSpace=wrap;html=1;strokeColor=#b85450;strokeWidth=2;fillColor=#f8cecc;verticalAlign=bottom;arcSize=2;" parent="V2hWgAb3W8Thl60gHnTr-1" vertex="1">
          <mxGeometry x="1250" y="640.63" width="320" height="292.5" as="geometry" />
        </mxCell>
        <mxCell id="UZxpzEzR6JHPjv615JEX-106" style="edgeStyle=orthogonalEdgeStyle;rounded=0;orthogonalLoop=1;jettySize=auto;html=1;entryX=0.5;entryY=0;entryDx=0;entryDy=0;endArrow=block;endFill=0;strokeWidth=2;" parent="V2hWgAb3W8Thl60gHnTr-1" source="UZxpzEzR6JHPjv615JEX-102" target="UZxpzEzR6JHPjv615JEX-104" edge="1">
          <mxGeometry relative="1" as="geometry" />
        </mxCell>
        <mxCell id="UZxpzEzR6JHPjv615JEX-102" value="" style="ellipse;whiteSpace=wrap;html=1;aspect=fixed;" parent="V2hWgAb3W8Thl60gHnTr-1" vertex="1">
          <mxGeometry x="1400" y="670.01" width="20" height="20" as="geometry" />
        </mxCell>
        <mxCell id="UZxpzEzR6JHPjv615JEX-103" value="" style="ellipse;whiteSpace=wrap;html=1;aspect=fixed;fillColor=#000000;" parent="V2hWgAb3W8Thl60gHnTr-1" vertex="1">
          <mxGeometry x="1400" y="883.76" width="20" height="20" as="geometry" />
        </mxCell>
        <mxCell id="UZxpzEzR6JHPjv615JEX-107" style="edgeStyle=orthogonalEdgeStyle;rounded=0;orthogonalLoop=1;jettySize=auto;html=1;exitX=0.5;exitY=1;exitDx=0;exitDy=0;endArrow=block;endFill=0;strokeWidth=2;" parent="V2hWgAb3W8Thl60gHnTr-1" source="UZxpzEzR6JHPjv615JEX-104" target="UZxpzEzR6JHPjv615JEX-131" edge="1">
          <mxGeometry relative="1" as="geometry" />
        </mxCell>
        <mxCell id="UZxpzEzR6JHPjv615JEX-104" value="Remove graphic" style="rounded=1;whiteSpace=wrap;html=1;fontSize=12;glass=0;strokeWidth=1;shadow=0;fillColor=#66B2FF;" parent="V2hWgAb3W8Thl60gHnTr-1" vertex="1">
          <mxGeometry x="1360" y="720.01" width="100" height="40" as="geometry" />
        </mxCell>
        <mxCell id="UZxpzEzR6JHPjv615JEX-108" value="Created hook" style="rounded=1;whiteSpace=wrap;html=1;strokeColor=#82b366;strokeWidth=2;fillColor=#d5e8d4;verticalAlign=middle;" parent="V2hWgAb3W8Thl60gHnTr-1" vertex="1">
          <mxGeometry x="464.8" y="608.75" width="290" height="40" as="geometry" />
        </mxCell>
        <mxCell id="UZxpzEzR6JHPjv615JEX-109" value="Created hook" style="rounded=1;whiteSpace=wrap;html=1;strokeColor=#82b366;strokeWidth=2;fillColor=#d5e8d4;verticalAlign=middle;" parent="V2hWgAb3W8Thl60gHnTr-1" vertex="1">
          <mxGeometry x="835.8" y="608.75" width="290" height="40" as="geometry" />
        </mxCell>
        <mxCell id="UZxpzEzR6JHPjv615JEX-110" value="Before destroy hook" style="rounded=1;whiteSpace=wrap;html=1;strokeColor=#b85450;strokeWidth=2;fillColor=#f8cecc;verticalAlign=middle;" parent="V2hWgAb3W8Thl60gHnTr-1" vertex="1">
          <mxGeometry x="464.79999999999995" y="961.25" width="290" height="37.5" as="geometry" />
        </mxCell>
        <mxCell id="UZxpzEzR6JHPjv615JEX-111" value="Before destroy hook" style="rounded=1;whiteSpace=wrap;html=1;strokeColor=#b85450;strokeWidth=2;fillColor=#f8cecc;verticalAlign=middle;" parent="V2hWgAb3W8Thl60gHnTr-1" vertex="1">
          <mxGeometry x="94.79999999999995" y="961.25" width="290" height="37.5" as="geometry" />
        </mxCell>
        <mxCell id="UZxpzEzR6JHPjv615JEX-123" style="edgeStyle=orthogonalEdgeStyle;rounded=0;orthogonalLoop=1;jettySize=auto;html=1;entryX=1;entryY=0.5;entryDx=0;entryDy=0;endArrow=block;endFill=0;fillColor=#e1d5e7;strokeColor=#9673a6;exitX=1;exitY=0.5;exitDx=0;exitDy=0;strokeWidth=2;" parent="V2hWgAb3W8Thl60gHnTr-1" source="UZxpzEzR6JHPjv615JEX-80" target="UZxpzEzR6JHPjv615JEX-58" edge="1">
          <mxGeometry relative="1" as="geometry">
            <Array as="points">
              <mxPoint x="1150" y="980" />
              <mxPoint x="1150" y="535" />
            </Array>
          </mxGeometry>
        </mxCell>
        <mxCell id="UZxpzEzR6JHPjv615JEX-113" value="" style="rounded=1;whiteSpace=wrap;html=1;strokeColor=#666666;strokeWidth=2;fillColor=none;verticalAlign=middle;fontColor=#333333;arcSize=4;" parent="V2hWgAb3W8Thl60gHnTr-1" vertex="1">
          <mxGeometry x="835.8" y="658.75" width="290" height="290" as="geometry" />
        </mxCell>
        <mxCell id="UZxpzEzR6JHPjv615JEX-122" style="edgeStyle=orthogonalEdgeStyle;rounded=0;orthogonalLoop=1;jettySize=auto;html=1;entryX=1;entryY=0.5;entryDx=0;entryDy=0;endArrow=block;endFill=0;fillColor=#e1d5e7;strokeColor=#9673a6;exitX=1;exitY=0.5;exitDx=0;exitDy=0;strokeWidth=2;" parent="V2hWgAb3W8Thl60gHnTr-1" source="UZxpzEzR6JHPjv615JEX-110" target="UZxpzEzR6JHPjv615JEX-59" edge="1">
          <mxGeometry relative="1" as="geometry">
            <Array as="points">
              <mxPoint x="780" y="980" />
              <mxPoint x="780" y="535" />
            </Array>
          </mxGeometry>
        </mxCell>
        <mxCell id="UZxpzEzR6JHPjv615JEX-114" value="" style="rounded=1;whiteSpace=wrap;html=1;strokeColor=#666666;strokeWidth=2;fillColor=none;verticalAlign=middle;fontColor=#333333;arcSize=4;" parent="V2hWgAb3W8Thl60gHnTr-1" vertex="1">
          <mxGeometry x="464.5" y="658.75" width="290" height="290" as="geometry" />
        </mxCell>
        <mxCell id="UZxpzEzR6JHPjv615JEX-121" style="edgeStyle=orthogonalEdgeStyle;rounded=0;orthogonalLoop=1;jettySize=auto;html=1;entryX=1;entryY=0.5;entryDx=0;entryDy=0;endArrow=block;endFill=0;fillColor=#e1d5e7;strokeColor=#9673a6;exitX=1;exitY=0.5;exitDx=0;exitDy=0;strokeWidth=2;" parent="V2hWgAb3W8Thl60gHnTr-1" source="UZxpzEzR6JHPjv615JEX-111" target="UZxpzEzR6JHPjv615JEX-116" edge="1">
          <mxGeometry relative="1" as="geometry">
            <Array as="points">
              <mxPoint x="410" y="980" />
              <mxPoint x="410" y="545" />
            </Array>
          </mxGeometry>
        </mxCell>
        <mxCell id="UZxpzEzR6JHPjv615JEX-115" value="" style="rounded=1;whiteSpace=wrap;html=1;strokeColor=#666666;strokeWidth=2;fillColor=none;verticalAlign=middle;fontColor=#333333;arcSize=4;" parent="V2hWgAb3W8Thl60gHnTr-1" vertex="1">
          <mxGeometry x="94.8" y="660" width="290" height="287.5" as="geometry" />
        </mxCell>
        <mxCell id="UZxpzEzR6JHPjv615JEX-120" style="edgeStyle=orthogonalEdgeStyle;rounded=0;orthogonalLoop=1;jettySize=auto;html=1;entryX=0.862;entryY=-0.017;entryDx=0;entryDy=0;entryPerimeter=0;endArrow=block;endFill=0;strokeColor=#CC99FF;strokeWidth=2;" parent="V2hWgAb3W8Thl60gHnTr-1" source="UZxpzEzR6JHPjv615JEX-116" target="UZxpzEzR6JHPjv615JEX-71" edge="1">
          <mxGeometry relative="1" as="geometry" />
        </mxCell>
        <mxCell id="UZxpzEzR6JHPjv615JEX-116" value="Internal&lt;br&gt;state" style="ellipse;whiteSpace=wrap;html=1;strokeColor=#9673a6;strokeWidth=2;fillColor=#e1d5e7;" parent="V2hWgAb3W8Thl60gHnTr-1" vertex="1">
          <mxGeometry x="304.8" y="500" width="80" height="70" as="geometry" />
        </mxCell>
        <mxCell id="UZxpzEzR6JHPjv615JEX-133" style="edgeStyle=orthogonalEdgeStyle;rounded=0;orthogonalLoop=1;jettySize=auto;html=1;entryX=0.5;entryY=0;entryDx=0;entryDy=0;endArrow=block;endFill=0;strokeColor=#000000;strokeWidth=2;" parent="V2hWgAb3W8Thl60gHnTr-1" source="UZxpzEzR6JHPjv615JEX-131" target="UZxpzEzR6JHPjv615JEX-103" edge="1">
          <mxGeometry relative="1" as="geometry" />
        </mxCell>
        <mxCell id="UZxpzEzR6JHPjv615JEX-131" value="Store state" style="rounded=1;whiteSpace=wrap;html=1;fontSize=12;glass=0;strokeWidth=1;shadow=0;fillColor=#e1d5e7;strokeColor=#9673a6;" parent="V2hWgAb3W8Thl60gHnTr-1" vertex="1">
          <mxGeometry x="1360" y="798.76" width="100" height="42.5" as="geometry" />
        </mxCell>
        <mxCell id="UZxpzEzR6JHPjv615JEX-134" value="Watch&lt;br&gt;selection" style="rounded=1;whiteSpace=wrap;html=1;fillColor=#008a00;strokeColor=#005700;fontColor=#ffffff;" parent="V2hWgAb3W8Thl60gHnTr-1" vertex="1">
          <mxGeometry x="670" y="670.01" width="70" height="40" as="geometry" />
        </mxCell>
        <mxCell id="UZxpzEzR6JHPjv615JEX-135" value="Watch&lt;br&gt;selection" style="rounded=1;whiteSpace=wrap;html=1;fillColor=#008a00;strokeColor=#005700;fontColor=#ffffff;" parent="V2hWgAb3W8Thl60gHnTr-1" vertex="1">
          <mxGeometry x="300" y="670.01" width="70" height="40" as="geometry" />
        </mxCell>
        <mxCell id="UZxpzEzR6JHPjv615JEX-136" value="Watch&lt;br&gt;selection" style="rounded=1;whiteSpace=wrap;html=1;fillColor=#008a00;strokeColor=#005700;fontColor=#ffffff;" parent="V2hWgAb3W8Thl60gHnTr-1" vertex="1">
          <mxGeometry x="1050" y="670.01" width="67.3" height="40" as="geometry" />
        </mxCell>
        <mxCell id="eQ53BQbF0O3jUouoWB6N-0" value="Forecast model changed" style="rounded=1;whiteSpace=wrap;html=1;fontSize=12;glass=0;strokeWidth=1;shadow=0;fillColor=#009900;" vertex="1" parent="V2hWgAb3W8Thl60gHnTr-1">
          <mxGeometry x="177.3" y="1100" width="126" height="40" as="geometry" />
        </mxCell>
        <mxCell id="eQ53BQbF0O3jUouoWB6N-1" style="edgeStyle=orthogonalEdgeStyle;rounded=0;orthogonalLoop=1;jettySize=auto;html=1;endArrow=block;endFill=0;strokeColor=#005700;fillColor=#008a00;exitX=0.5;exitY=0;exitDx=0;exitDy=0;entryX=0.5;entryY=1;entryDx=0;entryDy=0;" edge="1" parent="V2hWgAb3W8Thl60gHnTr-1" source="eQ53BQbF0O3jUouoWB6N-0" target="UZxpzEzR6JHPjv615JEX-2">
          <mxGeometry relative="1" as="geometry">
            <mxPoint x="470.49999999999994" y="1070" as="sourcePoint" />
            <mxPoint x="272.99999999999994" y="1028.75" as="targetPoint" />
          </mxGeometry>
        </mxCell>
        <mxCell id="eQ53BQbF0O3jUouoWB6N-2" value="Forecast level&lt;br&gt;changed" style="rounded=1;whiteSpace=wrap;html=1;fontSize=12;glass=0;strokeWidth=1;shadow=0;fillColor=#009900;" vertex="1" parent="V2hWgAb3W8Thl60gHnTr-1">
          <mxGeometry x="22" y="1100" width="126" height="40" as="geometry" />
        </mxCell>
        <mxCell id="eQ53BQbF0O3jUouoWB6N-3" style="edgeStyle=orthogonalEdgeStyle;rounded=0;orthogonalLoop=1;jettySize=auto;html=1;endArrow=block;endFill=0;strokeColor=#005700;fillColor=#008a00;exitX=0.5;exitY=0;exitDx=0;exitDy=0;entryX=0;entryY=1;entryDx=0;entryDy=0;" edge="1" parent="V2hWgAb3W8Thl60gHnTr-1" source="eQ53BQbF0O3jUouoWB6N-2" target="UZxpzEzR6JHPjv615JEX-2">
          <mxGeometry relative="1" as="geometry">
            <mxPoint x="283" y="1110" as="sourcePoint" />
            <mxPoint x="117" y="1030" as="targetPoint" />
          </mxGeometry>
        </mxCell>
      </root>
    </mxGraphModel>
  </diagram>
</mxfile>
